<?xml version="1.0" standalone="no"?><!DOCTYPE svg PUBLIC "-//W3C//DTD SVG 1.1//EN" "http://www.w3.org/Graphics/SVG/1.1/DTD/svg11.dtd"><svg t="1559288673388" class="icon" style="" viewBox="0 0 1024 1024" version="1.1" xmlns="http://www.w3.org/2000/svg" p-id="2028" xmlns:xlink="http://www.w3.org/1999/xlink" width="200" height="200"><defs><style type="text/css"></style></defs><path d="M512 0C229.2224 0 0 229.2224 0 512s229.2224 512 512 512 512-229.2224 512-512S794.7776 0 512 0z m237.2608 443.8528c-1.024 4.4544-3.6864 11.0592-7.3728 18.944h0.1024l-0.4096 0.768c-21.504 45.9776-77.6192 136.192-77.6192 136.192l-0.256-0.6144-16.384 28.5696h79.0016l-150.9376 200.6528 34.304-136.4992h-62.208l21.6064-90.2656c-17.4592 4.1984-38.144 9.984-62.6176 17.8688 0 0-33.0752 19.3536-95.3344-37.2736 0 0-41.984-37.0176-17.6128-46.2336 10.3424-3.9424 50.2272-8.96 81.6128-13.1584 42.496-5.7344 68.5568-8.8064 68.5568-8.8064s-130.816 1.9456-161.8432-2.9184c-31.0272-4.864-70.4-56.6784-78.7968-102.1952 0 0-12.9536-24.9856 27.904-13.1584 40.8576 11.8272 209.9712 46.08 209.9712 46.08S321.024 374.3744 306.3296 357.888c-14.6432-16.384-43.0592-89.8048-39.3728-134.8608 0 0 1.5872-11.264 13.1584-8.192 0 0 162.6112 74.24 273.7664 114.944 111.2064 40.704 207.872 61.3888 195.3792 114.0736z" fill="#3AA2EB" p-id="2029"></path></svg>